<svg width="26" height="25" viewBox="0 0 26 25" fill="none" xmlns="http://www.w3.org/2000/svg">
<g id="icon-passkey">
<path id="icon-passkey-head" d="M10.2146 12.0006C13.409 12.0006 15.9986 9.41098 15.9986 6.21658C15.9986 3.02219 13.409 0.432617 10.2146 0.432617C7.02023 0.432617 4.43066 3.02219 4.43066 6.21658C4.43066 9.41098 7.02023 12.0006 10.2146 12.0006Z" fill="#F2F0FF"/>
<path id="icon-passkey-key" d="M25.6379 12.0007C25.6407 11.195 25.4271 10.4033 25.0193 9.70836C24.6116 9.01342 24.0247 8.44074 23.3199 8.05018C22.6152 7.65961 21.8184 7.46549 21.013 7.4881C20.2076 7.51071 19.423 7.74922 18.7413 8.17871C18.0596 8.60819 17.5057 9.2129 17.1376 9.92962C16.7695 10.6463 16.6006 11.4488 16.6486 12.2531C16.6966 13.0574 16.9598 13.834 17.4106 14.5019C17.8614 15.1697 18.4833 15.7042 19.2113 16.0495V22.926L21.1392 24.854L24.3526 21.6407L22.4246 19.7127L24.3526 17.7847L22.7588 16.1909C23.6052 15.8643 24.3332 15.2893 24.847 14.5415C25.3608 13.7937 25.6365 12.908 25.6379 12.0007ZM21.1392 12.0007C20.885 12.0007 20.6365 11.9254 20.4252 11.7841C20.2138 11.6429 20.049 11.4421 19.9518 11.2073C19.8545 10.9724 19.829 10.714 19.8786 10.4647C19.9282 10.2153 20.0506 9.9863 20.2304 9.80655C20.4101 9.62679 20.6392 9.50438 20.8885 9.45478C21.1378 9.40519 21.3962 9.43064 21.6311 9.52792C21.866 9.62521 22.0667 9.78995 22.208 10.0013C22.3492 10.2127 22.4246 10.4612 22.4246 10.7154C22.4246 11.0563 22.2891 11.3832 22.0481 11.6243C21.8071 11.8653 21.4801 12.0007 21.1392 12.0007Z" fill="#F2F0FF"/>
<path id="icon-passkey-body" d="M15.2783 14.5971C14.2913 14.157 13.2228 13.9293 12.1422 13.9287H8.28618C6.24084 13.9287 4.27927 14.7412 2.833 16.1875C1.38673 17.6338 0.574219 19.5953 0.574219 21.6407V24.2113H17.2835V17.1292C16.4166 16.4633 15.7278 15.5934 15.2783 14.5971Z" fill="#F2F0FF"/>
</g>
</svg>
