<svg width="32" height="32" viewBox="0 0 32 32" fill="none" xmlns="http://www.w3.org/2000/svg">
<path d="M14.668 22.667H17.3346V14.667H14.668V22.667Z" fill="#FFE8A3"/>
<path d="M14.668 12.0003H17.3346V9.33366H14.668V12.0003Z" fill="#FFE8A3"/>
<path d="M24.825 21.9955C25.9881 20.2869 26.668 18.223 26.668 16.0003C26.668 10.1093 21.8923 5.33366 16.0013 5.33366C10.1103 5.33366 5.33464 10.1093 5.33463 16.0003C5.33463 21.8914 10.1103 26.667 16.0013 26.667C18.2241 26.667 20.2881 25.9871 21.9966 24.8239L23.9092 26.7365C21.6968 28.3689 18.9617 29.3337 16.0013 29.3337C8.6375 29.3337 2.66797 23.3641 2.66797 16.0003C2.66797 8.63653 8.63751 2.66699 16.0013 2.66699C23.3651 2.66699 29.3346 8.63653 29.3346 16.0003C29.3346 18.9607 28.3699 21.6957 26.7376 23.9081L24.825 21.9955Z" fill="#FFE8A3"/>
</svg>
